<svg width="91" height="83" viewBox="0 0 91 83" fill="none" xmlns="http://www.w3.org/2000/svg">
<path d="M90.8298 67.0388C90.8298 91.8281 70.5432 79.5069 45.5184 79.5069C20.4936 79.5069 0.207031 91.8281 0.207031 67.0388C0.207031 42.2495 20.4936 22.1537 45.5184 22.1537C70.5432 22.1537 90.8298 42.2495 90.8298 67.0388Z" fill="#BCE0EF"/>
<path d="M77.8848 65.0638C77.8848 79.2291 63.3944 72.1884 45.5196 72.1884C27.6447 72.1884 13.1543 79.2291 13.1543 65.0638C13.1543 50.8985 27.6447 39.4152 45.5196 39.4152C63.3944 39.4152 77.8848 50.8985 77.8848 65.0638Z" fill="#494C49"/>
<path d="M38.0122 60.9921C38.583 60.9921 39.0594 60.5165 38.8651 59.9798C38.5879 59.2141 37.999 58.5068 37.1498 57.9406C35.9359 57.1314 34.2894 56.6767 32.5727 56.6767C30.8559 56.6767 29.2095 57.1314 27.9955 57.9406C27.1463 58.5068 26.5574 59.2141 26.2802 59.9798C26.0859 60.5165 26.5623 60.9921 27.1331 60.9921V60.9921C27.7039 60.9921 28.1544 60.5049 28.4244 60.0021C28.6419 59.5971 28.9922 59.225 29.4571 58.915C30.2834 58.3642 31.4041 58.0547 32.5727 58.0547C33.7412 58.0547 34.8619 58.3642 35.6882 58.915C36.1531 59.225 36.5034 59.5971 36.7209 60.0021C36.991 60.5049 37.4414 60.9921 38.0122 60.9921V60.9921Z" fill="#FFD600"/>
<path d="M53.0249 60.9921C52.4541 60.9921 51.9777 60.5165 52.172 59.9798C52.4492 59.2141 53.0381 58.5068 53.8873 57.9406C55.1012 57.1314 56.7477 56.6767 58.4644 56.6767C60.1812 56.6767 61.8277 57.1314 63.0416 57.9406C63.8908 58.5068 64.4797 59.2141 64.7569 59.9798C64.9512 60.5165 64.4748 60.9921 63.904 60.9921V60.9921C63.3332 60.9921 62.8827 60.5049 62.6127 60.0021C62.3952 59.5971 62.0449 59.225 61.58 58.915C60.7537 58.3642 59.633 58.0547 58.4644 58.0547C57.2959 58.0547 56.1752 58.3642 55.3489 58.915C54.884 59.225 54.5337 59.5971 54.3162 60.0021C54.0462 60.5049 53.5957 60.9921 53.0249 60.9921V60.9921Z" fill="#FFD600"/>
<path d="M51.991 65.3073C51.991 67.6906 49.0929 69.6227 45.518 69.6227C41.943 69.6227 39.0449 67.6906 39.0449 65.3073C39.0449 62.924 41.943 65.3074 45.518 65.3074C49.0929 65.3074 51.991 62.924 51.991 65.3073Z" fill="#FFD600"/>
<path d="M39.0449 18.8384C39.0449 18.2861 39.4926 17.8384 40.0449 17.8384H50.991C51.5433 17.8384 51.991 18.2861 51.991 18.8384V24.3114H39.0449V18.8384Z" fill="#0085FF"/>
<rect x="43.3613" y="9.20764" width="4.31537" height="8.63074" fill="#BCE0EF"/>
<ellipse cx="45.518" cy="7.04996" rx="6.47305" ry="6.47305" fill="#0085FF"/>
</svg>
