<svg width="91" height="83" viewBox="0 0 91 83" fill="none" xmlns="http://www.w3.org/2000/svg">
<path d="M90.8298 67.0387C90.8298 91.828 70.5432 79.5068 45.5184 79.5068C20.4936 79.5068 0.207031 91.828 0.207031 67.0387C0.207031 42.2494 20.4936 22.1537 45.5184 22.1537C70.5432 22.1537 90.8298 42.2494 90.8298 67.0387Z" fill="#BCE0EF"/>
<path d="M77.8848 65.0638C77.8848 79.2291 63.3944 72.1884 45.5196 72.1884C27.6447 72.1884 13.1543 79.2291 13.1543 65.0638C13.1543 50.8984 27.6447 39.4152 45.5196 39.4152C63.3944 39.4152 77.8848 50.8984 77.8848 65.0638Z" fill="#494C49"/>
<path d="M38.0122 60.992C38.583 60.992 39.0594 60.5164 38.8651 59.9797C38.5879 59.214 37.999 58.5067 37.1498 57.9406C35.9359 57.1313 34.2894 56.6766 32.5727 56.6766C30.8559 56.6766 29.2095 57.1313 27.9955 57.9406C27.1463 58.5067 26.5574 59.214 26.2802 59.9797C26.0859 60.5164 26.5623 60.992 27.1331 60.992C27.7039 60.992 28.1544 60.5049 28.4244 60.002C28.6419 59.597 28.9922 59.2249 29.4571 58.915C30.2834 58.3641 31.4041 58.0546 32.5727 58.0546C33.7412 58.0546 34.8619 58.3641 35.6882 58.915C36.1531 59.2249 36.5034 59.597 36.7209 60.002C36.991 60.5049 37.4414 60.992 38.0122 60.992Z" fill="#FFD600"/>
<path d="M53.0249 60.992C52.4541 60.992 51.9777 60.5164 52.172 59.9797C52.4492 59.214 53.0381 58.5067 53.8873 57.9406C55.1012 57.1313 56.7477 56.6766 58.4644 56.6766C60.1812 56.6766 61.8277 57.1313 63.0416 57.9406C63.8908 58.5067 64.4797 59.214 64.7569 59.9797C64.9512 60.5164 64.4748 60.992 63.904 60.992C63.3332 60.992 62.8827 60.5049 62.6127 60.002C62.3952 59.597 62.0449 59.2249 61.58 58.915C60.7537 58.3641 59.633 58.0546 58.4644 58.0546C57.2959 58.0546 56.1752 58.3641 55.3489 58.915C54.884 59.2249 54.5337 59.597 54.3162 60.002C54.0462 60.5049 53.5957 60.992 53.0249 60.992Z" fill="#FFD600"/>
<path d="M51.991 65.3073C51.991 67.6906 49.0929 69.6226 45.518 69.6226C41.943 69.6226 39.0449 67.6906 39.0449 65.3073C39.0449 62.924 41.943 65.3074 45.518 65.3074C49.0929 65.3074 51.991 62.924 51.991 65.3073Z" fill="#FFD600"/>
<path d="M39.0449 18.8383C39.0449 18.286 39.4926 17.8383 40.0449 17.8383H50.991C51.5433 17.8383 51.991 18.286 51.991 18.8383V24.3114H39.0449V18.8383Z" fill="#0085FF"/>
<rect x="43.3613" y="9.20758" width="4.31537" height="8.63074" fill="#BCE0EF"/>
<ellipse cx="45.518" cy="7.0499" rx="6.47305" ry="6.47305" fill="#0085FF"/>
</svg>
